<svg xmlns="http://www.w3.org/2000/svg" xmlns:xlink="http://www.w3.org/1999/xlink" viewBox="0 0 50 50" fill="#FFFFFF">
  <path d="M9 4C6.239 4 4 6.239 4 9L4 41C4 43.761 6.239 46 9 46L41 46C43.761 46 46 43.761 46 41L46 9C46 6.239 43.761 4 41 4L9 4 z M 20 12L25 12C29.42 12 33.033 15.632547 33 20.060547C32.991 21.141547 33.919 22 35 22L36 22C37.105 22 38 22.895 38 24L38 30C38 34.4 34.4 38 30 38L20 38C15.6 38 12 34.4 12 30L12 25L12 20C12 15.6 15.6 12 20 12 z M 20 18C18.9 18 18 18.9 18 20C18 21.1 18.9 22 20 22L25 22C26.1 22 27 21.1 27 20C27 18.9 26.1 18 25 18L20 18 z M 20 28C18.9 28 18 28.9 18 30C18 31.1 18.9 32 20 32L30 32C31.1 32 32 31.1 32 30C32 28.9 31.1 28 30 28L20 28 z" fill="#FFFFFF" />
</svg>