<svg xmlns="http://www.w3.org/2000/svg" xmlns:xlink="http://www.w3.org/1999/xlink" fill="#FFF" viewBox="0 0 50 50"><path fill="#FFF" d="M46.792969 22.089844L27.910156 3.207031C27.109375 2.402344 26.054688 2 25 2C23.945313 2 22.890625 2.402344 22.089844 3.207031L18.355469 6.941406L22.976563 11.5625C24.511719 10.660156 26.511719 10.855469 27.828125 12.171875C29.144531 13.488281 29.335938 15.488281 28.433594 17.019531L32.976563 21.5625C34.511719 20.660156 36.511719 20.855469 37.828125 22.171875C39.390625 23.734375 39.390625 26.265625 37.828125 27.828125C36.265625 29.390625 33.734375 29.390625 32.171875 27.828125C30.855469 26.511719 30.660156 24.511719 31.5625 22.976563L27.019531 18.433594C26.695313 18.625 26.355469 18.765625 26 18.855469L26 31.140625C27.722656 31.585938 29 33.136719 29 35C29 37.210938 27.210938 39 25 39C22.789063 39 21 37.210938 21 35C21 33.136719 22.277344 31.585938 24 31.140625L24 18.855469C23.332031 18.683594 22.695313 18.351563 22.171875 17.828125C20.855469 16.511719 20.664063 14.511719 21.566406 12.980469L16.941406 8.355469L3.207031 22.089844C1.597656 23.695313 1.597656 26.304688 3.207031 27.910156L22.089844 46.792969C22.890625 47.597656 23.945313 48 25 48C26.054688 48 27.109375 47.597656 27.910156 46.792969L46.792969 27.910156C48.402344 26.304688 48.402344 23.695313 46.792969 22.089844Z"/></svg>